<svg width="24" height="24" viewBox="0 0 24 24" xmlns="http://www.w3.org/2000/svg">
<path d="M4 10.4V4C4 3.73478 4.10536 3.48043 4.29289 3.29289C4.48043 3.10536 4.73478 3 5 3H10V1H14V3H19C19.2652 3 19.5196 3.10536 19.7071 3.29289C19.8946 3.48043 20 3.73478 20 4V10.4L21.086 10.726C21.3323 10.7999 21.5407 10.9657 21.6678 11.1892C21.795 11.4127 21.8313 11.6765 21.769 11.926L20.252 17.994C19.434 18.0361 18.6183 17.8762 17.8768 17.5285C17.1352 17.1807 16.4907 16.6558 16 16C15.5343 16.621 14.9303 17.125 14.2361 17.4721C13.5418 17.8193 12.7762 18 12 18C11.2238 18 10.4582 17.8193 9.76393 17.4721C9.06966 17.125 8.46574 16.621 8 16C7.50933 16.6558 6.86479 17.1807 6.12324 17.5285C5.3817 17.8762 4.56595 18.0361 3.748 17.994L2.232 11.926C2.1697 11.6767 2.20578 11.4129 2.33277 11.1895C2.45976 10.966 2.6679 10.8001 2.914 10.726L4 10.4ZM6 9.8L12 8L14.754 8.826L16.563 9.369L18 9.8V5H6V9.8ZM4 20C5.47623 20.0018 6.90097 19.4576 8 18.472C9.09903 19.4576 10.5238 20.0018 12 20C13.4762 20.0018 14.901 19.4576 16 18.472C17.099 19.4576 18.5238 20.0018 20 20H22V22H20C18.5956 22.0024 17.2156 21.6333 16 20.93C14.7844 21.6333 13.4044 22.0024 12 22C10.5956 22.0024 9.2156 21.6333 8 20.93C6.7844 21.6333 5.40438 22.0024 4 22H2V20H4Z"/>
</svg>
