<svg width="100" height="100" viewBox="0 0 100 100" fill="none" xmlns="http://www.w3.org/2000/svg">
<rect width="100" height="100" rx="10" fill="#CF0A2C"/>
<path d="M84.04 27.3562L52.7323 9.72525C51.8958 9.24953 50.9557 9 50 9C49.0443 9 48.1042 9.24953 47.2677 9.72525L15.96 27.3635C15.0659 27.867 14.3196 28.6084 13.7989 29.5101C13.2782 30.4118 13.0023 31.4409 13 32.4899V67.5101C13.0023 68.5591 13.2782 69.5882 13.7989 70.4899C14.3196 71.3916 15.0659 72.133 15.96 72.6365L47.2677 90.2748C48.1042 90.7505 49.0443 91 50 91C50.9557 91 51.8958 90.7505 52.7323 90.2748L84.04 72.6365C84.9341 72.133 85.6804 71.3916 86.2011 70.4899C86.7218 69.5882 86.9977 68.5591 87 67.5101V32.4935C86.9996 31.4427 86.7246 30.4113 86.2038 29.5075C85.6831 28.6037 84.9357 27.8606 84.04 27.3562ZM50 14.8516L78.5825 30.963L67.9913 36.9315L39.4052 20.8201L50 14.8516ZM50 47.0743L21.4175 30.963L33.4781 24.1669L62.0606 40.2783L50 47.0743ZM18.6923 36.0893L47.1538 52.1201V83.5336L18.6923 67.5138V36.0893ZM81.3077 67.4991L52.8462 83.5336V52.1348L64.2308 45.7232V58.7917C64.2308 59.5686 64.5306 60.3137 65.0644 60.863C65.5981 61.4124 66.3221 61.721 67.0769 61.721C67.8318 61.721 68.5557 61.4124 69.0895 60.863C69.6232 60.3137 69.9231 59.5686 69.9231 58.7917V42.5155L81.3077 36.0893V67.4955V67.4991Z" fill="white"/>
</svg>
